<svg xmlns="http://www.w3.org/2000/svg" viewBox="0 0 48 48" width="100%" height="100%">
  <path fill="#0F9D58" d="M37,45H11c-1.657,0-3-1.343-3-3V6c0-1.657,1.343-3,3-3h19l10,10v29C40,43.657,38.657,45,37,45z"/>
  <path fill="#C8E6C9" d="M30,3v10h10L30,3z"/>
  <path fill="#FFFFFF" d="M31,21H17c-0.552,0-1,0.448-1,1v12c0,0.552,0.448,1,1,1h14c0.552,0,1-0.448,1-1V22 C32,21.448,31.552,21,31,21z M23,23h7v3h-7V23z M18,23h4v3h-4V23z M18,28h4v3h-4V28z M23,28h7v3h-7V28z M18,33h4v2h-4V33z M23,33h7 v2h-7V33z"/>
</svg>
